HIERARCHY
ROOT Hips
{
	OFFSET 64.521797 -9.038944 85.472504
	CHANNELS 6 Xposition Yposition Zposition Xrotation Yrotation Zrotation
	JOINT spine
	{
		OFFSET 0.000000 -0.367607 6.392601
		CHANNELS 3 Xrotation Yrotation Zrotation
		JOINT spine1
		{
			OFFSET 0.000000 -0.000001 9.176109
			CHANNELS 3 Xrotation Yrotation Zrotation
			JOINT spine2
			{
				OFFSET 0.000000 -0.000002 8.792381
				CHANNELS 3 Xrotation Yrotation Zrotation
				JOINT Neck
				{
					OFFSET 0.000000 -1.076243 22.573692
					CHANNELS 3 Xrotation Yrotation Zrotation
					JOINT Head
					{
						OFFSET 0.000000 -0.000001 6.820114
						CHANNELS 3 Xrotation Yrotation Zrotation
						End Site
						{
							OFFSET 0.000000 5.444268 16.508499
						}
					}
				}
				JOINT RightShoulder
				{
					OFFSET -3.702209 0.515507 9.495087
					CHANNELS 3 Xrotation Yrotation Zrotation
					JOINT RightArm
					{
						OFFSET 0.000000 -0.000003 12.453697
						CHANNELS 3 Xrotation Yrotation Zrotation
						JOINT RightArmRoll
						{
							OFFSET 0.000000 -0.000001 6.286865
							CHANNELS 3 Xrotation Yrotation Zrotation
							JOINT RightForeArm
							{
								OFFSET 0.000000 -0.000003 18.311401
								CHANNELS 3 Xrotation Yrotation Zrotation
								JOINT RightForeArmRoll
								{
									OFFSET 0.000000 -0.000001 7.054825
									CHANNELS 3 Xrotation Yrotation Zrotation
									JOINT RightHand
									{
										OFFSET 0.000000 -0.000002 14.157501
										CHANNELS 3 Xrotation Yrotation Zrotation
										End Site
										{
											OFFSET 0.000000 0.000000 0.100006
										}
									}
								}
							}
						}
					}
				}
				JOINT LeftShoulder
				{
					OFFSET 3.702209 0.515507 9.495087
					CHANNELS 3 Xrotation Yrotation Zrotation
					JOINT LeftArm
					{
						OFFSET 0.000000 -0.000003 12.453697
						CHANNELS 3 Xrotation Yrotation Zrotation
						JOINT LeftArmRoll
						{
							OFFSET 0.000000 -0.000001 6.286865
							CHANNELS 3 Xrotation Yrotation Zrotation
							JOINT LeftForeArm
							{
								OFFSET 0.000000 -0.000003 18.311401
								CHANNELS 3 Xrotation Yrotation Zrotation
								JOINT LeftForeArmRoll
								{
									OFFSET 0.000000 -0.000001 7.054825
									CHANNELS 3 Xrotation Yrotation Zrotation
									JOINT LeftHand
									{
										OFFSET 0.000000 -0.000002 14.157501
										CHANNELS 3 Xrotation Yrotation Zrotation
										End Site
										{
											OFFSET 0.000000 0.000000 0.100006
										}
									}
								}
							}
						}
					}
				}
			}
		}
	}
	JOINT RightUpLeg
	{
		OFFSET -5.666161 0.871611 -1.039032
		CHANNELS 3 Xrotation Yrotation Zrotation
		JOINT RightUpLegRoll
		{
			OFFSET 0.000000 -0.000003 16.600502
			CHANNELS 3 Xrotation Yrotation Zrotation
			JOINT RightLeg
			{
				OFFSET 0.000000 0.000003 -20.557198
				CHANNELS 3 Xrotation Yrotation Zrotation
				JOINT RightLegRoll
				{
					OFFSET 0.000000 -0.000003 20.624397
					CHANNELS 3 Xrotation Yrotation Zrotation
					JOINT RightFoot
					{
						OFFSET 0.000000 -0.000003 17.166405
						CHANNELS 3 Xrotation Yrotation Zrotation
						JOINT RightToeBase
						{
							OFFSET 0.000000 -0.000003 14.350204
							CHANNELS 3 Xrotation Yrotation Zrotation
							End Site
							{
								OFFSET 0.006081 0.801059 6.949707
							}
						}
					}
				}
			}
		}
	}
	JOINT LeftUpLeg
	{
		OFFSET 5.666161 0.871611 -1.039032
		CHANNELS 3 Xrotation Yrotation Zrotation
		JOINT LeftUpLegRoll
		{
			OFFSET 0.000000 -0.000003 16.600601
			CHANNELS 3 Xrotation Yrotation Zrotation
			JOINT LeftLeg
			{
				OFFSET 0.000000 -0.000004 20.557098
				CHANNELS 3 Xrotation Yrotation Zrotation
				JOINT LeftLegRoll
				{
					OFFSET 0.000000 -0.000003 20.815094
					CHANNELS 3 Xrotation Yrotation Zrotation
					JOINT LeftFoot
					{
						OFFSET 0.000000 -0.000003 16.975693
						CHANNELS 3 Xrotation Yrotation Zrotation
						JOINT LeftToeBase
						{
							OFFSET 0.000000 -0.000003 14.350204
							CHANNELS 3 Xrotation Yrotation Zrotation
							End Site
							{
								OFFSET -0.027260 0.801060 6.949707
							}
						}
					}
				}
			}
		}
	}
}
MOTION
Frames: 13
Frame Time: 0.041667
44.015602 -14.181615 85.431892 -1.220224 -1.596839 11.640294 -0.328081 -0.268816 -0.219803 3.345698 -0.538338 -0.431488 4.990775 -0.543466 -0.425004 10.358184 -2.775799 15.539548 -3.076449 13.844882 15.130850 1.998203 -48.197787 3.942161 -46.353939 -110.576139 -81.229923 0.000000 -0.000003 -0.000003 89.012111 3.069812 -6.473734 -0.000003 0.000001 -3.000001 -5.000207 -7.998698 0.000166 6.629205 48.386539 -9.624103 -47.341745 121.612392 86.818603 -0.000000 -0.000000 0.000005 87.000142 1.882224 6.210287 0.000001 0.000000 3.000215 -5.000229 7.998700 -0.000164 -2.589666 -177.791258 0.539914 179.999991 -0.000005 -1.118001 169.980445 -4.674928 -0.834982 0.000008 -0.000004 0.197334 70.533465 7.477309 0.456759 25.456950 -7.352225 0.006795 -4.398584 169.839402 -1.515233 -0.000005 -0.000004 -1.280332 -8.312969 0.088513 0.477597 -0.000006 0.000002 0.075273 66.266987 -6.993606 -2.056562 25.445030 7.355489 0.016533 
43.996002 -14.170313 85.428299 -1.234996 -1.591240 11.703101 -0.326987 -0.266139 -0.222382 3.347885 -0.532969 -0.437174 4.992960 -0.538166 -0.430754 10.424811 -2.911671 15.620252 -3.117062 13.992981 15.223021 1.897493 -48.157686 3.823490 -46.983143 -110.455784 -81.807484 0.000001 -0.000003 -0.000004 89.036242 3.082171 -6.491173 -0.000001 -0.000000 -2.999999 -5.000206 -7.998700 0.000164 6.670376 48.204412 -9.709328 -47.628593 121.704354 87.011563 0.000000 0.000004 0.000003 86.942502 1.902484 6.174380 -0.000003 0.000001 3.000210 -5.000228 7.998702 -0.000162 -2.562979 -177.824166 0.518110 179.999991 -0.000005 -1.118999 169.995841 -4.657413 -0.833617 0.000007 -0.000004 0.197572 70.531928 7.479534 0.449447 25.456950 -7.352224 0.006795 -4.412033 169.789692 -1.569564 -0.000005 -0.000004 -1.282321 -8.464846 0.108964 0.482972 -0.000006 0.000002 0.070840 66.275293 -6.993446 -2.056597 25.441386 7.355494 0.021642 
43.995403 -14.176418 85.431709 -1.249847 -1.585313 11.764316 -0.326047 -0.263598 -0.225032 3.349752 -0.527877 -0.443089 4.994835 -0.533145 -0.436730 10.493086 -3.045468 15.701980 -3.159040 14.139940 15.316066 1.798172 -48.113881 3.707118 -47.622982 -110.336460 -82.396609 -0.000003 -0.000002 -0.000003 89.061712 3.095448 -6.509747 -0.000006 -0.000003 -3.000000 -5.000207 -7.998697 0.000165 6.703634 48.022729 -9.785067 -47.909802 121.797545 87.198307 -0.000001 0.000001 0.000009 86.883189 1.923194 6.137634 0.000001 0.000002 3.000213 -5.000230 7.998700 -0.000161 -2.534891 -177.856091 0.495832 179.999991 -0.000005 -1.119997 170.013995 -4.638955 -0.830852 0.000008 -0.000004 0.197754 70.529141 7.481577 0.442585 25.456950 -7.352224 0.006795 -4.426344 169.739053 -1.625694 -0.000005 -0.000004 -1.284210 -8.623632 0.130933 0.488770 -0.000006 0.000002 0.066023 66.286617 -6.993187 -2.056722 25.437861 7.355499 0.026512 
43.976906 -14.171210 85.431900 -1.264599 -1.579085 11.824145 -0.325300 -0.261177 -0.227733 3.351249 -0.523031 -0.449162 4.996324 -0.528372 -0.442861 10.562321 -3.177166 15.784501 -3.201511 14.285379 15.409754 1.699309 -48.066271 3.591821 -48.273899 -110.218319 -82.997385 -0.000000 0.000001 -0.000003 89.088521 3.109281 -6.529067 -0.000003 -0.000000 -3.000000 -5.000207 -7.998704 0.000169 6.729680 47.841479 -9.852118 -48.186947 121.890176 87.380277 -0.000001 0.000002 0.000006 86.821704 1.944468 6.100051 -0.000001 -0.000002 3.000212 -5.000227 7.998699 -0.000160 -2.505551 -177.889026 0.473310 179.999991 -0.000005 -1.121007 170.034800 -4.619549 -0.828726 0.000008 -0.000004 0.197885 70.525152 7.483598 0.435902 25.456947 -7.352224 0.006795 -4.441359 169.686392 -1.683299 -0.000004 -0.000004 -1.286010 -8.787892 0.154351 0.494946 -0.000006 0.000002 0.060890 66.300551 -6.992900 -2.056775 25.434830 7.355502 0.030773 
43.980904 -14.142817 85.433205 -1.279100 -1.572608 11.882793 -0.324769 -0.258860 -0.230452 3.352308 -0.518393 -0.455320 4.997389 -0.523809 -0.449074 10.632107 -3.306733 15.867588 -3.243596 14.428913 15.503945 1.599983 -48.015192 3.476370 -48.932237 -110.102916 -83.605491 0.000000 -0.000002 -0.000004 89.116572 3.123593 -6.549211 -0.000003 -0.000000 -3.000001 -5.000209 -7.998701 0.000165 6.749249 47.660609 -9.911300 -48.456599 121.982999 87.553149 -0.000001 0.000004 0.000006 86.757964 1.966157 6.061543 -0.000001 -0.000000 3.000212 -5.000228 7.998700 -0.000167 -2.475108 -177.921934 0.450634 179.999991 -0.000005 -1.121007 170.058173 -4.600176 -0.826406 0.000007 -0.000004 0.197977 70.519996 7.485629 0.429200 25.456945 -7.352223 0.006795 -4.456806 169.633745 -1.742273 -0.000005 -0.000005 -1.287700 -8.956175 0.179147 0.501447 -0.000006 0.000002 0.055503 66.316663 -6.992533 -2.056769 25.432402 7.355499 0.034085 
43.971207 -14.144211 85.421799 -1.293204 -1.565941 11.940454 -0.324490 -0.256626 -0.233166 3.352865 -0.513934 -0.461491 4.997936 -0.519424 -0.455300 10.701744 -3.434173 15.951085 -3.284392 14.570043 15.598185 1.499271 -47.960851 3.359575 -49.600089 -109.989644 -84.222953 -0.000000 -0.000002 -0.000002 89.145799 3.138239 -6.569901 -0.000003 0.000003 -3.000001 -5.000209 -7.998695 0.000163 6.763062 47.480169 -9.963457 -48.720310 122.074154 87.718535 0.000000 0.000003 0.000004 86.691630 1.988289 6.022121 -0.000002 0.000001 3.000212 -5.000229 7.998703 -0.000165 -2.443709 -177.953858 0.427901 179.999991 -0.000005 -1.122004 170.084073 -4.580835 -0.823888 0.000007 -0.000004 0.198032 70.513719 7.487810 0.422399 25.456947 -7.352225 0.006795 -4.472509 169.581139 -1.802372 -0.000005 -0.000004 -1.289311 -9.127019 0.205244 0.508214 -0.000006 0.000002 0.049931 66.334319 -6.992124 -2.056855 25.430990 7.355508 0.036062 
43.971603 -14.134214 85.426598 -1.306723 -1.559125 11.997040 -0.324491 -0.254463 -0.235851 3.352853 -0.509617 -0.467603 4.997932 -0.515181 -0.461465 10.770624 -3.559451 16.034841 -3.323052 14.708500 15.692317 1.396252 -47.903340 3.240193 -50.273385 -109.879951 -84.845033 -0.000000 0.000000 -0.000002 89.176159 3.152953 -6.591130 -0.000006 0.000000 -2.999999 -5.000207 -7.998700 0.000166 6.771794 47.299948 -10.009316 -48.974656 122.164381 87.871961 0.000000 0.000003 0.000007 86.622542 2.010764 5.981688 0.000000 -0.000003 3.000210 -5.000227 7.998704 -0.000163 -2.411488 -177.986779 0.405338 179.999991 -0.000005 -1.123002 170.112432 -4.561523 -0.821206 0.000007 -0.000004 0.198060 70.506520 7.490136 0.415384 25.456948 -7.352225 0.006795 -4.488240 169.527495 -1.863242 -0.000005 -0.000004 -1.290809 -9.298978 0.232580 0.515194 -0.000006 0.000003 0.044233 66.353218 -6.991663 -2.057056 25.430778 7.355497 0.036368 
43.956505 -14.128115 85.424805 -1.319525 -1.552198 12.053050 -0.324812 -0.252349 -0.238480 3.352210 -0.505410 -0.473583 4.997289 -0.511046 -0.467496 10.838349 -3.682566 16.118724 -3.358660 14.843785 15.786058 1.290007 -47.842979 3.117046 -50.956507 -109.772649 -85.476150 -0.000000 -0.000001 -0.000003 89.207612 3.167484 -6.612689 -0.000003 0.000000 -3.000002 -5.000210 -7.998702 0.000166 6.776155 47.120089 -10.049703 -49.218698 122.253023 88.012137 0.000001 0.000003 0.000005 86.550402 2.033634 5.940141 -0.000003 -0.000001 3.000212 -5.000228 7.998704 -0.000166 -2.378613 -178.018704 0.383000 179.999991 -0.000005 -1.123998 170.143168 -4.542240 -0.818339 0.000007 -0.000004 0.198066 70.498344 7.492741 0.407886 25.456948 -7.352225 0.006795 -4.503789 169.474875 -1.924795 -0.000004 -0.000004 -1.292221 -9.470599 0.261090 0.522327 -0.000006 0.000002 0.038472 66.372944 -6.991181 -2.056996 25.431998 7.355508 0.034622 
43.958103 -14.126410 85.424301 -1.331445 -1.545233 12.108389 -0.325478 -0.250267 -0.241025 3.350868 -0.501278 -0.479363 4.995947 -0.506985 -0.473325 10.904213 -3.803528 16.202358 -3.390346 14.975519 15.879145 1.179628 -47.779864 2.988911 -51.642876 -109.669684 -86.108919 -0.000002 -0.000003 -0.000003 89.240069 3.181702 -6.634293 -0.000006 0.000000 -3.000003 -5.000206 -7.998700 0.000165 6.776802 46.940465 -10.085353 -49.452943 122.339002 88.139199 0.000000 0.000003 0.000006 86.475017 2.056776 5.897500 -0.000001 0.000000 3.000211 -5.000227 7.998702 -0.000162 -2.345217 -178.049631 0.361026 179.999991 -0.000005 -1.123998 170.176212 -4.523967 -0.815495 0.000008 -0.000004 0.198060 70.489335 7.495653 0.399896 25.456950 -7.352224 0.006795 -4.518970 169.421258 -1.986619 -0.000004 -0.000004 -1.293530 -9.640446 0.290699 0.529549 -0.000006 0.000002 0.032719 66.392984 -6.990656 -2.057108 25.435030 7.355495 0.030476 
43.950500 -14.117414 85.419609 -1.342314 -1.538248 12.163261 -0.326524 -0.248201 -0.243468 3.348766 -0.497191 -0.484865 4.993843 -0.502962 -0.478879 10.967604 -3.922312 16.285679 -3.417207 15.103225 15.971274 1.064193 -47.714182 2.854597 -52.334740 -109.570598 -86.745417 -0.000003 -0.000003 -0.000003 89.273475 3.195428 -6.656031 -0.000002 0.000000 -3.000000 -5.000210 -7.998701 0.000163 6.774429 46.761114 -10.117024 -49.675143 122.422221 88.250149 0.000000 0.000003 0.000005 86.396183 2.080175 5.853648 -0.000002 0.000001 3.000209 -5.000228 7.998702 -0.000165 -2.311455 -178.080572 0.339602 179.999991 -0.000005 -1.124995 170.211511 -4.505718 -0.812496 0.000007 -0.000004 0.198048 70.479506 7.499013 0.391040 25.456950 -7.352224 0.006795 -4.533535 169.368611 -2.048625 -0.000005 -0.000005 -1.294740 -9.807044 0.321351 0.536790 -0.000006 0.000003 0.027034 66.412818 -6.990174 -2.057142 25.439979 7.355497 0.023561 
43.944103 -14.132815 85.423492 -1.351990 -1.531313 12.217865 -0.327986 -0.246132 -0.245774 3.345844 -0.493111 -0.490027 4.990919 -0.498945 -0.484088 11.028034 -4.038934 16.368441 -3.438371 15.226614 16.062160 0.942803 -47.646047 2.712929 -53.031921 -109.475419 -87.385269 -0.000000 -0.000002 -0.000003 89.307756 3.208557 -6.677613 -0.000004 0.000003 -3.000003 -5.000209 -7.998702 0.000167 6.769661 46.581818 -10.145431 -49.884532 122.502134 88.343866 -0.000000 0.000003 0.000003 86.313558 2.103832 5.808610 -0.000002 0.000001 3.000211 -5.000228 7.998700 -0.000165 -2.277481 -178.109491 0.318785 179.999991 -0.000005 -1.126006 170.249008 -4.487493 -0.808337 0.000008 -0.000004 0.198038 70.469083 7.502777 0.381392 25.456947 -7.352223 0.006795 -4.547295 169.316947 -2.110554 -0.000004 -0.000003 -1.295858 -9.968961 0.352978 0.543979 -0.000006 0.000002 0.021481 66.432025 -6.989645 -2.057308 25.447152 7.355503 0.013526 
43.931305 -14.123614 85.425308 -1.360302 -1.524470 12.272404 -0.329888 -0.244043 -0.247922 3.342032 -0.489007 -0.494765 4.987107 -0.494898 -0.488874 11.084980 -4.153394 16.450364 -3.452953 15.345203 16.151500 0.814556 -47.575618 2.562700 -53.729943 -109.385486 -88.023182 -0.000000 -0.000003 -0.000004 89.342884 3.220712 -6.698919 -0.000003 0.000000 -2.999999 -5.000208 -7.998699 0.000163 6.763166 46.402734 -10.171327 -50.080323 122.578168 88.418991 0.000001 0.000003 0.000007 86.227020 2.127674 5.762286 -0.000002 0.000004 3.000212 -5.000226 7.998702 -0.000161 -2.243413 -178.138437 0.298801 179.999991 -0.000005 -1.126006 170.288610 -4.470272 -0.805214 0.000008 -0.000004 0.198036 70.458012 7.507119 0.370590 25.456948 -7.352225 0.006795 -4.560026 169.266294 -2.172153 -0.000005 -0.000004 -1.296879 -10.124732 0.385523 0.551039 -0.000006 0.000003 0.016126 66.450289 -6.989108 -2.057333 25.456945 7.355479 -0.000004 
43.936302 -14.122014 85.426399 -1.367301 -1.517659 12.325783 -0.332260 -0.241950 -0.249951 3.337290 -0.484922 -0.499211 4.982363 -0.490867 -0.493367 11.138664 -4.266560 16.532220 -3.459780 15.461317 16.239780 0.682222 -47.501278 2.407800 -54.430986 -109.298757 -88.664140 -0.000000 -0.000002 -0.000005 89.379623 3.232571 -6.720491 -0.000004 0.000000 -3.000001 -5.000211 -7.998700 0.000165 6.751727 46.223350 -10.190997 -50.262406 122.651414 88.477437 0.000001 0.000003 0.000006 86.136718 2.151746 5.714775 -0.000000 -0.000000 3.000211 -5.000227 7.998701 -0.000166 -2.209421 -178.166372 0.279437 179.999991 -0.000005 -1.127004 170.330288 -4.454071 -0.802113 0.000008 -0.000004 0.198072 70.446298 7.512044 0.358734 25.456948 -7.352225 0.006795 -4.572314 169.216612 -2.234527 -0.000005 -0.000004 -1.297770 -10.278280 0.419860 0.558205 -0.000007 0.000003 0.010772 66.468450 -6.988596 -2.057465 25.468867 7.355458 -0.016630 
